<?xml version="1.0" encoding="utf-8"?>
<!-- Generator: Adobe Illustrator 26.0.3, SVG Export Plug-In . SVG Version: 6.00 Build 0)  -->
<svg version="1.0" id="katman_1" xmlns="http://www.w3.org/2000/svg" xmlns:xlink="http://www.w3.org/1999/xlink" x="0px" y="0px"
	 viewBox="0 0 800 600" style="enable-background:new 0 0 800 600;" xml:space="preserve">
<style type="text/css">
	.st0{fill:#118CFD;}
</style>
<path class="st0" d="M327.4,301.6c0.5,10,9,17.7,19,17.2c7.6-0.1,14.8-3.4,19.9-9.2c0.5-0.9,1.7-1.2,2.6-0.6
	c0.2,0.1,0.3,0.2,0.4,0.4l6.9,7.4c0.9,0.7,1.2,2,0.5,3c0,0,0,0,0,0l-0.1,0.1c-1.4,2.3-11.3,14.9-31.6,14.9c-20.3,0-37-13.4-37-36.3
	c-0.5-19.4,14.8-35.5,34.2-36c0,0,0,0,0,0h1.1c22.3,0,33.4,13.5,33.4,36.9c0,1.3-1,2.3-2.3,2.3h-46.8V301.6z M358.4,290.6
	c-0.3-6.6-4.4-13.2-14.6-13.2c-8.3,0-14.6,4.1-16.2,13.2C327.7,290.6,358.4,290.6,358.4,290.6z"/>
<path class="st0" d="M675.4,301.3c0.5,10,9.1,17.7,19.1,17.1c0,0,0,0,0,0l0,0c7.6-0.1,14.8-3.4,19.9-9.2c0.5-0.9,1.7-1.2,2.6-0.6
	c0.2,0.1,0.3,0.2,0.4,0.4l6.9,7.4c0.9,0.7,1.1,2,0.4,3c0,0,0,0,0,0l-0.1,0.1c-1.4,2.3-11.3,14.9-31.6,14.9s-37-13.4-37-36.3
	c-0.4-19.4,14.9-35.5,34.3-35.9c0,0,0,0,0.1,0h0.9c22.3,0,33.4,13.4,33.4,36.9c0,1.3-1,2.3-2.3,2.3h-46.8L675.4,301.3z M706.4,290.4
	c-0.3-6.6-4.4-13.2-14.6-13.2c-8.3,0-14.6,4.1-16.2,13.2H706.4z"/>
<path class="st0" d="M444.3,333.7c-3.2,0.4-6.1-1.8-6.6-5c-0.1-0.5-0.1-1.1,0-1.6v-6h-0.3c-2,4.9-7.7,13.6-21.7,13.6
	c-19.9,0-32-14.9-32-36c0-23.2,13.6-36.4,32.1-36.4c13.6,0,20,7.4,21.1,10h0.3v-6.7c-0.1-1,0.6-1.9,1.6-2H452c1-0.1,1.9,0.7,2,1.7
	c0,0,0,0,0,0c0,0.1,0,0.2,0,0.2v52.9h5.3c0.9-0.1,1.7,0.5,1.9,1.4c0,0.2,0,0.4,0,0.6v11.1c0.1,1-0.6,1.9-1.5,2c0,0,0,0,0,0
	L444.3,333.7L444.3,333.7z M435.7,298.8c0-13.4-7.3-20.3-16.4-20.3c-10.1,0-17,8-17,20.4s7.3,19.9,17,19.9
	C428,318.8,435.7,312.1,435.7,298.8L435.7,298.8z"/>
<path class="st0" d="M303.3,280.1c2.7-5.6,6.5-10.5,11.4-14.4c0.5-0.6,0.5-1.5-0.1-2c-0.2-0.2-0.4-0.3-0.6-0.3c-3.2-0.6-6.5-1-9.7-1
	c-23.4,0-28.9,18.6-28.9,18.6h-0.6v-15.9c0-1.1-0.9-2-2-2h-21.3c-1.1,0-2,0.9-2,2v11.1c-0.1,1,0.6,1.9,1.6,2h7.4v40h-5.2
	c-1-0.1-1.9,0.5-2,1.5c0,0.2,0,0.3,0,0.5v11.1c-0.1,1,0.7,1.9,1.7,2c0,0,0,0,0,0h29.3c1.1,0,2-0.9,2-2v-11.1c0-1.1-0.9-2-2-2h-4.9
	v-17.4c0-9.7,11.7-20.9,24.3-19.7C302.5,281.2,303.1,280.8,303.3,280.1z"/>
<path class="st0" d="M534,318.1v-75.3c0.1-1-0.5-1.9-1.5-2c-0.2,0-0.3,0-0.5,0h-21.1c-1-0.2-2,0.5-2.1,1.5c0,0.2,0,0.3,0,0.5V254
	c-0.1,1,0.7,1.9,1.7,2c0,0,0,0,0,0h5.1v10.3c0,3,0.3,5.9,0.3,5.9h-0.3c-1.3-2.7-6.9-10.2-19.7-10.2c-19.9,0-32.6,14.9-32.6,35.9
	c0,23.3,13.6,36.4,32.1,36.4c13.4,0,20.4-8.7,21.6-11.6h0.3v7c0,2,1.6,3.7,3.7,3.7h10c1.6,0,2.9-1.3,2.9-2.9v-12.2L534,318.1z
	 M499.1,318.2c-10.3,0-17-8.3-17-20.6s7.3-19.7,17-19.7c8.7,0,16.4,6.4,16.4,19.9S508.4,318.3,499.1,318.2L499.1,318.2z"/>
<path class="st0" d="M652.6,318.4h-5.3v-31c0-14.7-8.3-25.1-23.7-25.1s-20.3,9.9-21.6,11.7c-3.4-7.1-10.4-11.7-20.6-11.7
	c-15.9,0-20.9,11-21.6,12.3h-0.4v-8.3c0.3-1.4-0.7-2.8-2.1-3c-0.3-0.1-0.7-0.1-1,0H546c-1.7,0-3.1,1.4-3.1,3.1c0,0,0,0,0,0l0,0v62.9
	c0,2.4,1.9,4.3,4.3,4.3H567c1.1,0,2-0.9,2-2l0,0v-11.1c0.1-1-0.5-1.9-1.5-2c-0.2,0-0.3,0-0.5,0h-5V288c1.5-5.6,6.7-9.5,12.6-9.4
	c9.2,0,11.7,6,11.7,14.7v38.3c0,0.9,0.7,1.7,1.6,1.7c0,0,0,0,0,0h22.5c1,0.1,1.9-0.7,2-1.7c0,0,0,0,0,0c0-0.1,0-0.2,0-0.2v-11
	c0.1-1-0.5-1.9-1.5-2c-0.2,0-0.3,0-0.5,0h-5.1v-28.8c-0.1-0.9-0.2-1.8-0.4-2.7c1.8-5,6.6-8.3,11.9-8.1c9,0,11.7,6,11.7,14.7v33.4
	c0,3.6,2.9,6.6,6.6,6.6h17.7c1.1,0,2-0.9,2-2l0,0v-11.1c0.1-1-0.5-1.9-1.5-2c-0.2,0-0.4,0-0.6,0L652.6,318.4z"/>
<path class="st0" d="M203.5,256.3h-34.1c-11.8-0.1-22,8.1-24.6,19.6c-2.6-11.4-12.7-19.5-24.4-19.6H86.3c-6.5,0-11.7,5.2-11.7,11.7
	v59.9c0,6.5,5.2,11.7,11.7,11.7h21.9c25,0,32.5,6,36,18.3c0.1,0.3,0.3,0.5,0.7,0.5h0.1c0.3,0,0.6-0.2,0.7-0.5
	c3.6-12.3,11-18.3,35.9-18.3h21.8c6.5,0,11.7-5.2,11.7-11.7V268C215,261.6,209.9,256.3,203.5,256.3z M133.7,321
	c0,0.5-0.4,0.8-0.8,0.8c0,0,0,0,0,0H93.8c-0.5,0-0.8-0.4-0.8-0.8l0,0v-5.6c0-0.5,0.4-0.8,0.8-0.8h0h39.1c0.5,0,0.8,0.4,0.8,0.8
	c0,0,0,0,0,0V321z M133.7,306.1c0,0.5-0.4,0.8-0.8,0.8c0,0,0,0,0,0H93.8c-0.5,0-0.8-0.4-0.8-0.8l0,0v-5.6c0-0.5,0.4-0.8,0.8-0.8h0
	h39.1c0.5,0,0.8,0.4,0.8,0.8c0,0,0,0,0,0V306.1z M133.7,291.3c0,0.5-0.4,0.8-0.8,0.8c0,0,0,0,0,0H93.8c-0.5,0-0.8-0.4-0.8-0.8l0,0
	v-5.6c0-0.5,0.4-0.8,0.8-0.8h0h39.1c0.5,0,0.8,0.4,0.8,0.8c0,0,0,0,0,0V291.3z M196.9,320.9c0,0.5-0.4,0.8-0.8,0.8l0,0H157
	c-0.5,0-0.8-0.4-0.8-0.8l0,0v-5.6c0-0.5,0.4-0.8,0.8-0.8l0,0h39.1c0.5,0,0.8,0.4,0.8,0.8c0,0,0,0,0,0V320.9z M196.9,306.1
	c0,0.5-0.4,0.8-0.8,0.8l0,0H157c-0.5,0-0.8-0.4-0.8-0.8c0,0,0,0,0,0v-5.6c0-0.5,0.4-0.8,0.8-0.8l0,0h39.1c0.5,0,0.8,0.4,0.8,0.8
	c0,0,0,0,0,0V306.1z M196.9,291.2c0,0.5-0.4,0.8-0.8,0.8l0,0H157c-0.5,0-0.8-0.4-0.8-0.8c0,0,0,0,0,0v-5.5c0-0.5,0.4-0.8,0.8-0.8
	l0,0h39.1c0.5,0,0.8,0.4,0.8,0.8c0,0,0,0,0,0V291.2L196.9,291.2z"/>
</svg>
