<?xml version="1.0" encoding="UTF-8"?>
<svg id="uuid-7a051ba2-c877-46aa-bbf3-98373cf28e3d" data-name="uuid-05bb4cdf-e253-4651-adc5-35f0551d6cde" xmlns="http://www.w3.org/2000/svg" xmlns:xlink="http://www.w3.org/1999/xlink" viewBox="0 0 1033.1 661.75">
  <defs>
    <style>
      .uuid-56dc5cf3-e2e7-41bf-b970-e2f3664d11d3 {
        fill: #0491f4;
      }

      .uuid-fa931406-3cb2-4117-860f-e98702f349e8 {
        fill: #0290f4;
      }

      .uuid-466fd0b2-176b-41ae-9c6f-9dd0883a1063 {
        fill: #008bf4;
      }

      .uuid-ce1a8354-7241-4435-8e93-a16c736982e7 {
        fill: #0592f4;
      }

      .uuid-12f1bde3-72af-4c5c-be50-5bf65643444c {
        fill: #e4f3fd;
      }

      .uuid-fbc2aee3-1009-4494-bfe6-e681c0c2250e {
        fill: #0591f4;
      }

      .uuid-2213c8c6-0616-4be8-8f75-8262eb0073f4 {
        fill: #a8d9fb;
      }

      .uuid-ec04832f-758a-4bf9-944f-8dee3cb22a9d {
        fill: #e4f2fd;
      }

      .uuid-8de55a66-5029-4d8c-99d5-e1e97659ebd7 {
        fill: #fafcfe;
      }

      .uuid-e9f662e3-4453-4688-9659-68b9f68eea16 {
        fill: none;
      }

      .uuid-289a5e81-2aa4-4df8-85a3-d67c3e1375f0 {
        fill: #0089f3;
      }

      .uuid-ef5ed9b9-5e06-4a46-a3ba-404f79ce3e9d {
        fill: #028bf3;
      }

      .uuid-536bfdcb-121c-4d80-b70f-f4941ba3954a {
        fill: #0391f4;
      }

      .uuid-9f6017e5-cd7d-4b34-b7fe-f120297cb47b {
        clip-path: url(#uuid-c38e4575-0784-44aa-b9fa-fa0187b91fff);
      }

      .uuid-20a2fa0d-9128-4b9f-98a1-2f7f5cfc7f21 {
        fill: #1795f4;
      }

      .uuid-fbdca745-3a7e-4279-899d-de7ddf6073d8 {
        fill: #0088f3;
      }

      .uuid-94fefcc5-3b0f-475d-bb19-34ed5abd56a1 {
        fill: #7cc6f9;
      }

      .uuid-1419aae5-6c78-4f73-9857-d365f5792af1 {
        fill: #0090f4;
      }

      .uuid-ecba3e31-48ef-48c7-9189-f9e6212e12c8 {
        fill: #84c9f9;
      }

      .uuid-65ba03d1-b88c-4d6a-851a-753d5731b288 {
        fill: #0593f4;
      }

      .uuid-f5d56d39-637c-4725-9a44-254d3f8a92fb {
        fill: #0191f4;
      }

      .uuid-9c2abe27-1d39-45eb-9323-2f1248e8d81a {
        fill: #048df4;
      }

      .uuid-a494e7d0-626e-4272-a1d7-1fcaa4473a98 {
        fill: #008af3;
      }

      .uuid-cf784b09-bb98-43a3-add9-946949a36db8 {
        fill: #0492f4;
      }

      .uuid-460c5786-0ead-46ee-86f0-27348d358630 {
        fill: #fefefe;
      }

      .uuid-213978e3-9c01-402d-b845-0c2df47ed875 {
        fill: #048bf3;
      }

      .uuid-ad9f2c1b-f583-4f79-9f73-043944c27bb5 {
        fill: #0f95f4;
      }

      .uuid-bea07221-d90d-4513-8dfa-952abb1a88b8 {
        fill: #fdfefe;
      }

      .uuid-8aa68cf7-06a2-4662-af38-5d586853bc8b {
        fill: #0091f4;
      }
    </style>
    <clipPath id="uuid-c38e4575-0784-44aa-b9fa-fa0187b91fff">
      <rect class="uuid-e9f662e3-4453-4688-9659-68b9f68eea16" x="15.84" y="119" width="1001.42" height="400.48"/>
    </clipPath>
  </defs>
  <g class="uuid-9f6017e5-cd7d-4b34-b7fe-f120297cb47b">
    <g>
      <path class="uuid-1419aae5-6c78-4f73-9857-d365f5792af1" d="M2.06,0h1031.04v659.71c-343.28,1.24-687.22,1.59-1031.8,1.03C.41,440.14.66,219.9,2.06,0Z"/>
      <polygon class="uuid-460c5786-0ead-46ee-86f0-27348d358630" points="2.06 0 2.05 659.72 1033.1 659.71 1033.1 661.75 0 661.75 0 0 2.06 0"/>
      <path class="uuid-bea07221-d90d-4513-8dfa-952abb1a88b8" d="M164.97,267.56c12.5,1.69,17.95,10.17,22.69,20.42,2.45,5.96,3.83,6.63,4.12,2.04,3.62-11.31,9.79-20.72,22.69-22.47,18.33-2.16,37.55-2.83,55.67,0,4.45,1.01,9.47,8.9,10.19,13.39,1.93,12.01,2.12,84.68-.31,95.45-3.94,17.41-32.38,11.29-47,11.66-5.86,1.41-10.68,2.77-14.44,4.08-14.83,2.07-25.99,8.34-26.83,24.51-6.77-3.05-5.23-12.52-10.37-17.27-4.81-4.45-14.14-6.66-20.54-7.23-3.67-.43-4.53-1.18-2.58-2.24-14.91,1.29-29.18.67-42.78-1.84-.73-.56-9.37-1.98-14.44-6.13l-2.06-4.46c-.06-33.35-.02-66.71.11-100.08l1.95-3.71c1.46-1.32,7.06-5.86,8.25-6.13,18.07-2.88,37.36-2.11,55.67,0h.01Z"/>
      <path class="uuid-bea07221-d90d-4513-8dfa-952abb1a88b8" d="M810.4,314.53c-2.18-25.05-28.87-11.48-28.87-7.15v50.04c1.93.35,7.66-.58,8.27-.01.82.77-.63,18.82-.02,22.48h-33v-70.47c0-7.85-15.75-11.26-22.66-8.12-1.07.48-8.28,7.55-8.28,8.12v48c1.93.35,7.66-.58,8.27-.01.82.77-.63,18.82-.02,22.48h-29.9c-2.26,0-2.96-4.99-3.2-7.04-2.17-18.39-2.24-71.75,0-90.07.26-2.19-.08-4.7,2.03-6.16,1.85-1.28,18.04-1.56,18.7-.91.59.58-.37,10.44-.02,13.28,4.39,4.31,4.09-2.17,6.16-4.1,16.22-15.3,36.89-15.09,47.5,5.12h3.04c11.7-20.36,40.82-22.41,52.34-.75.84,1.59,4.38,11.19,4.38,11.99v56.17c2.29.4,9.69-.61,10.32-.01.81.78-.61,18.83,0,22.49-7.77-1.43-23.18,2.07-29.68-.24-3.82-1.36-2.05-6.25-5.38-7.94-1.63-18.92-1.63-37.99,0-57.19h.01Z"/>
      <path class="uuid-460c5786-0ead-46ee-86f0-27348d358630" d="M690.79,245.09v132.76c-2.96,2.6-17.75,3.22-20.76,1.15-4.03-2.79-.31-13.28-2.97-13.42-18.99,31.07-58.4,14.14-65.61-16.69-2.53-10.82-2.74-33.22.52-43.66,6.88-22,31.55-40.25,54.29-27.4,2.94,1.66,6.23,9.02,9.74,10.16-.58-3.63.86-21.7.04-22.47-.75-.7-7.53.73-8.28.02-.82-.77.63-18.82,0-22.49,10.84.85,22.86-2.08,33.01,2.05v-.02Z"/>
      <path class="uuid-460c5786-0ead-46ee-86f0-27348d358630" d="M587.7,355.38c.38,3.44,7.16,1.22,8.17,2.12s-.53,18.68.09,22.4c-16.44-1.34-33.01,7.21-28.9-16.35-7.62,5.5-8.31,14.98-18.47,17.38-44.85,10.57-59.42-42.21-48.52-76.59,9.09-28.66,44.65-42.22,64.92-16.36-2.43-19.37,12.08-10.84,22.71-10.21,1.58,25.69,2.06,52.07,0,77.61h.01Z"/>
      <path class="uuid-460c5786-0ead-46ee-86f0-27348d358630" d="M872.26,332.91c-.71,17.92,14.17,27.2,31.06,23.59,14.21-3.04,19.41-19.99,31-2.18,2.37,3.63-.63,8.51-3.15,11.41-6.99,8.03-22.35,15.56-33.03,16.29-48.73,3.3-66.92-60.56-39.4-92.12,6.92-7.93,22.56-15.69,33.11-15.79,32.56-.29,45.02,30.11,42.28,58.81h-61.87Z"/>
      <path class="uuid-bea07221-d90d-4513-8dfa-952abb1a88b8" d="M451.59,357.42c13.47-1.02,20.24-11.43,24.02-12.08,2.91-.51,13.18,10.18,13.18,13.11,0,7.16-16.5,13.6-20.12,19.38-53.92,23.58-89.59-43.61-57.96-84.38,4.85-6.24,17.84-16.95,25.39-17.73,39.1-3.98,50.91,19.94,51.71,55.2-4.25,5.88-53.56-1.84-63.03,4.03,5.06.39,5.75,2.43,2.06,6.13,2.89,10.15,6.8,14.89,18.56,16.34,1.98,1.54,4.02.93,6.19,0h0Z"/>
      <path class="uuid-bea07221-d90d-4513-8dfa-952abb1a88b8" d="M356.74,275.73l1.03,26.57c8.24-23.46,26.54-29.72,50.51-26.56,1.58,7.02-5.37,8.91-8.23,13.27-1.94,2.98-4.95,11.56-6.76,12.72-3.49,2.25-13.51,1.43-18.82,4.86-1.68,1.09-13.63,16.05-13.63,17.13v33.7c1.93.35,7.66-.58,8.27-.01.82.77-.63,18.81-.02,22.48h-41.24c.61-3.66-.84-21.7-.02-22.48.61-.57,6.34.36,8.27.01v-57.19c0-.66-10.23,2.2-12.09-3.35-1.16-3.46-1.14-21.16,2.8-21.16h29.92Z"/>
      <path class="uuid-213978e3-9c01-402d-b845-0c2df47ed875" d="M101.04,381.94c-1.1-.9-3.54-3.1-4.12-4.08-3.11-32.97-2.66-67.05,0-100.07,1.45-2.59,2.48-2.6,4.12-4.08v108.24Z"/>
      <path class="uuid-cf784b09-bb98-43a3-add9-946949a36db8" d="M96.92,377.85c-1.11-1.86-1.79-1.65-2.18-4.89-2.37-19.61-1.88-68.09-.02-88.25.37-3.98.44-3.77,2.2-6.93v100.07Z"/>
      <path class="uuid-94fefcc5-3b0f-475d-bb19-34ed5abd56a1" d="M115.48,388.07c12.7.36,25.53-.49,38.24,0,3.97.15,8.27-2.1,7.12,4.08-7.25-.64-42.86,1.33-44.98-.5-.95-.82-.16-3.4-.4-3.58h.01Z"/>
      <path class="uuid-a494e7d0-626e-4272-a1d7-1fcaa4473a98" d="M587.7,355.38v-77.61c.29.02.43-1.66,1.02-1.99,1.65,21.82,1.36,45.77,1.08,68.4-.04,3.45,1.32,9.07-2.1,11.21h.01Z"/>
      <path class="uuid-ef5ed9b9-5e06-4a46-a3ba-404f79ce3e9d" d="M424.79,334.95l61.85.02c.48,3.56-4.68,1.92-7.18,2.02-14.92.6-30.94-1.15-45.58-.14-4.17.28-5.06.34-7.02,4.23-.5-1.74-2.7-3.56-2.06-6.13Z"/>
      <path class="uuid-289a5e81-2aa4-4df8-85a3-d67c3e1375f0" d="M810.4,371.72c-.1-.05-2.1,3.45-2.07,1.02,1.3-18.99-2.66-39.82,2.07-58.2,1.6,18.32-1.18,38.63,0,57.19Z"/>
      <path class="uuid-20a2fa0d-9128-4b9f-98a1-2f7f5cfc7f21" d="M270.14,267.56c-6.44-1.46-47.93-1.05-55.67,0,13.45-3.61,30.17-2.22,44.37-2.08,3.48.04,9.17-1.31,11.31,2.08Z"/>
      <path class="uuid-20a2fa0d-9128-4b9f-98a1-2f7f5cfc7f21" d="M164.97,267.56c-7.71-1.05-49.28-1.46-55.67,0,2.14-3.38,7.82-2.04,11.31-2.08,14.19-.15,30.91-1.53,44.37,2.08Z"/>
      <rect class="uuid-a494e7d0-626e-4272-a1d7-1fcaa4473a98" x="327.87" y="381.94" width="39.18" height="2.04"/>
      <rect class="uuid-289a5e81-2aa4-4df8-85a3-d67c3e1375f0" x="705.23" y="381.94" width="28.87" height="2.04"/>
      <path class="uuid-ecba3e31-48ef-48c7-9189-f9e6212e12c8" d="M233.01,388.07c1.81,7.14-8.39,3.24-14.44,4.08-1.95-6.57,8.41-3.93,14.44-4.08Z"/>
      <path class="uuid-289a5e81-2aa4-4df8-85a3-d67c3e1375f0" d="M595.93,381.96c.48,3.56-4.68,1.92-7.18,2.02-5.83.24-11.73-.14-17.53-.02-.48-3.56,4.68-1.92,7.18-2.02,5.83-.24,11.73.14,17.53.02h0Z"/>
      <path class="uuid-ec04832f-758a-4bf9-944f-8dee3cb22a9d" d="M451.59,357.42c1.6,6.49-8,6.09-6.19,0,1.81.22,4.32.14,6.19,0Z"/>
      <path class="uuid-2213c8c6-0616-4be8-8f75-8262eb0073f4" d="M191.78,290.02c-.48,1.51.34,4.25-.02,6.12-3.39.63-2.74-5.21-4.1-8.16l4.12,2.04Z"/>
      <path class="uuid-ad9f2c1b-f583-4f79-9f73-043944c27bb5" d="M204.14,363.55c-1.04-1.06.07-12.25,3.09-12.25h47.42c4.09,0,4.09,12.25,0,12.25-6.99,0-48.75,1.79-50.52,0h.01Z"/>
      <path class="uuid-65ba03d1-b88c-4d6a-851a-753d5731b288" d="M204.14,330.87h50.52c3.88,0,3.88,10.21,0,10.21h-47.42c-2.7,0-3.77-7.55-3.09-10.21h-.01Z"/>
      <rect class="uuid-ce1a8354-7241-4435-8e93-a16c736982e7" x="123.72" y="330.87" width="51.55" height="10.21"/>
      <path class="uuid-fbc2aee3-1009-4494-bfe6-e681c0c2250e" d="M175.28,355.38c.39,2.53-.21,5.55.01,8.18l-50.36.03c-2.11-.33-1.32-6.04-1.2-8.21.29-1.14.61-2.02.95-2.04,15.53-.63,33.7-.64,49.24-.02.48.02.92.92,1.35,2.06Z"/>
      <rect class="uuid-9c2abe27-1d39-45eb-9323-2f1248e8d81a" x="204.14" y="308.4" width="53.61" height="10.21"/>
      <path class="uuid-fa931406-3cb2-4117-860f-e98702f349e8" d="M175.28,312.49c.1,2.03,0,4.1.01,6.14l-50.35.03c-2.15-.21-1.33-4.51-1.22-6.17.29-1.14.61-2.02.95-2.04,15.53-.63,33.7-.64,49.24-.02.48.02.92.92,1.35,2.06h.01Z"/>
      <path class="uuid-466fd0b2-176b-41ae-9c6f-9dd0883a1063" d="M123.72,312.49c.09-1.35-.12-2.74-.01-4.08l50.33-.04c2.16-.24,1.16,2.64,1.23,4.12h-51.55Z"/>
      <rect class="uuid-8de55a66-5029-4d8c-99d5-e1e97659ebd7" x="123.72" y="345.17" width="51.55" height="4.08"/>
      <path class="uuid-fbdca745-3a7e-4279-899d-de7ddf6073d8" d="M123.72,355.38c.07-1.36-.11-2.73-.01-4.08l50.33-.04c2.27-.23,1.01,2.66,1.23,4.12h-51.55Z"/>
      <path class="uuid-f5d56d39-637c-4725-9a44-254d3f8a92fb" d="M629.53,304.89c1.95-2.26,11.64-6.41,14.86-6.42,30.59-.11,29.47,64.25-3.6,58.57-19.56-3.36-22.17-39.49-11.28-52.15h.01Z"/>
      <path class="uuid-8aa68cf7-06a2-4662-af38-5d586853bc8b" d="M546.45,357.42c-.62,3.12-7.12,3.23-8.25,0-8.9-6.89-14.06-3.46-16.32-19.58-2.78-19.92,3.41-44.57,28.79-36.68,14.27,4.44,15.19,36.42,8.6,47.53-3.89,6.56-8.3,5.82-12.83,8.73h0Z"/>
      <path class="uuid-12f1bde3-72af-4c5c-be50-5bf65643444c" d="M546.45,357.42c-.5.32,1.98,3.54-3.01,4.2-7.65,1.01-4.77-3.83-5.24-4.2h8.25Z"/>
      <path class="uuid-536bfdcb-121c-4d80-b70f-f4941ba3954a" d="M911.44,316.57h-39.18c2.53-24.52,38.65-26.21,39.18,0Z"/>
      <path class="uuid-56dc5cf3-e2e7-41bf-b970-e2f3664d11d3" d="M463.97,316.57h-39.18c2.45-24.29,40.12-25.83,39.18,0Z"/>
      <rect class="uuid-536bfdcb-121c-4d80-b70f-f4941ba3954a" x="208.27" y="312.49" width="45.36" height="4.08"/>
    </g>
  </g>
</svg>