<?xml version="1.0" encoding="UTF-8"?>
<svg id="uuid-05bb4cdf-e253-4651-adc5-35f0551d6cde" data-name="Layer 1" xmlns="http://www.w3.org/2000/svg" xmlns:xlink="http://www.w3.org/1999/xlink" viewBox="0 0 1001.42 400.48">
  <defs>
    <style>
      .uuid-98847bc9-f9c2-4fbb-a7d1-c346ffe3f2fc {
        fill: #0491f4;
      }

      .uuid-f8480d23-5fbf-4ae8-8d46-01026c810f11 {
        fill: #0290f4;
      }

      .uuid-c3341a00-b097-4ee3-bd0c-30adad3ca27b {
        fill: #008bf4;
      }

      .uuid-9d7e4fe7-213f-4b67-9631-1b8a2770b471 {
        fill: #0592f4;
      }

      .uuid-24356a81-5a02-42eb-a323-592664fe6416 {
        fill: #e4f3fd;
      }

      .uuid-ada2247c-e147-4316-930e-d778efc42434 {
        clip-path: url(#uuid-252cd6ee-89f3-4312-b1e3-4332f1361e68);
      }

      .uuid-a59e5ac6-2e95-4f47-895b-7b65c683eacd {
        fill: #0591f4;
      }

      .uuid-a6d7f54e-59ea-4903-a7ad-7859c1528435 {
        fill: #a8d9fb;
      }

      .uuid-e168f155-a9a3-420e-960d-b6bc9228114c {
        fill: #e4f2fd;
      }

      .uuid-760150e6-a3e3-4055-8ecb-51c19abedf15 {
        fill: #fafcfe;
      }

      .uuid-8af24ac8-7a3a-47e5-bc37-b5c8986e8d97 {
        fill: none;
      }

      .uuid-1f4202ec-25ba-40a6-b3d4-9ac530678683 {
        fill: #0089f3;
      }

      .uuid-90d773af-0ec9-44e8-bbe2-f2ef8ccdbb4b {
        fill: #028bf3;
      }

      .uuid-4de6af90-0b64-434e-a44e-b701a05b9958 {
        fill: #0391f4;
      }

      .uuid-c151b4b3-bd4e-4242-99f2-a1179de55cf8 {
        fill: #1795f4;
      }

      .uuid-31154971-3e11-4e37-8bd3-e65ebc379391 {
        fill: #0088f3;
      }

      .uuid-9a2e38e6-8f76-4015-aa92-f1d62f335ee8 {
        fill: #7cc6f9;
      }

      .uuid-8d71338d-fd1e-4807-b069-1284ab515b1c {
        fill: #0090f4;
      }

      .uuid-a773afaa-de9f-4f60-93cd-741495f1f1f4 {
        fill: #84c9f9;
      }

      .uuid-4e0e6298-0f27-4cb6-aeca-aa89d87a6b6d {
        fill: #0593f4;
      }

      .uuid-332864e9-01bc-4647-bb7b-3ccda1041e66 {
        fill: #0191f4;
      }

      .uuid-f8ba1e09-c3f2-4ef9-af51-c2cdada101f1 {
        fill: #048df4;
      }

      .uuid-4bbacfc4-ac16-46ff-b445-aa76d72a3591 {
        fill: #008af3;
      }

      .uuid-17c1c6fa-6468-4640-905d-0c750731cb21 {
        fill: #0492f4;
      }

      .uuid-50df02fc-8936-4719-9a45-da68a47cf67a {
        fill: #fefefe;
      }

      .uuid-180d0372-9b8d-4626-a865-69eb51fb4542 {
        fill: #048bf3;
      }

      .uuid-50eb0467-9e94-4d1c-857c-793e8f87c4e2 {
        fill: #0f95f4;
      }

      .uuid-5b2ebd92-3972-4b48-84d5-1dc4154248ab {
        fill: #fdfefe;
      }

      .uuid-338ba4a3-e950-4048-9883-b8b37cb0ab52 {
        fill: #0091f4;
      }
    </style>
    <clipPath id="uuid-252cd6ee-89f3-4312-b1e3-4332f1361e68">
      <rect class="uuid-8af24ac8-7a3a-47e5-bc37-b5c8986e8d97" width="1001.42" height="400.48"/>
    </clipPath>
  </defs>
  <g class="uuid-ada2247c-e147-4316-930e-d778efc42434">
    <g>
      <path class="uuid-8d71338d-fd1e-4807-b069-1284ab515b1c" d="M2.03-124h1014.87v655.72c-337.9,1.23-676.44,1.58-1015.62,1.02C.4,313.48.65,94.57,2.03-124Z"/>
      <polygon class="uuid-50df02fc-8936-4719-9a45-da68a47cf67a" points="2.03 -124 2.02 531.73 1016.9 531.72 1016.9 533.75 0 533.75 0 -124 2.03 -124"/>
      <path class="uuid-5b2ebd92-3972-4b48-84d5-1dc4154248ab" d="M162.38,141.94c12.3,1.68,17.67,10.11,22.33,20.3,2.41,5.92,3.77,6.59,4.06,2.03,3.56-11.24,9.64-20.59,22.33-22.33,18.04-2.15,36.96-2.81,54.8,0,4.38,1,9.32,8.85,10.03,13.31,1.9,11.94,2.09,84.17-.31,94.87-3.88,17.3-31.87,11.22-46.26,11.59-5.77,1.4-10.51,2.75-14.21,4.06-14.6,2.06-25.58,8.29-26.41,24.36-6.66-3.03-5.15-12.44-10.21-17.17-4.73-4.42-13.92-6.62-20.22-7.19-3.61-.43-4.46-1.17-2.54-2.23-14.68,1.28-28.72.67-42.11-1.83-.72-.56-9.22-1.97-14.21-6.09l-2.03-4.43c-.06-33.15-.02-66.31.11-99.48l1.92-3.69c1.44-1.31,6.95-5.82,8.12-6.09,17.79-2.86,36.77-2.1,54.8,0Z"/>
      <path class="uuid-5b2ebd92-3972-4b48-84d5-1dc4154248ab" d="M797.69,188.63c-2.15-24.9-28.42-11.41-28.42-7.11v49.74c1.9.35,7.54-.58,8.14-.01.81.77-.62,18.71-.02,22.34h-32.48v-70.04c0-7.8-15.5-11.19-22.3-8.07-1.05.48-8.15,7.5-8.15,8.07v47.71c1.9.35,7.54-.58,8.14-.01.81.77-.62,18.71-.02,22.34h-29.43c-2.22,0-2.91-4.96-3.15-7-2.14-18.28-2.2-71.32,0-89.53.26-2.18-.08-4.67,2-6.12,1.82-1.27,17.76-1.55,18.41-.9.58.58-.36,10.38-.02,13.2,4.32,4.28,4.03-2.16,6.06-4.08,15.97-15.21,36.31-15,46.76,5.09h2.99c11.52-20.24,40.18-22.27,51.52-.75.83,1.58,4.31,11.12,4.31,11.92v55.83c2.25.4,9.54-.61,10.16-.01.8.78-.6,18.72,0,22.35-7.65-1.42-22.82,2.06-29.21-.24-3.76-1.35-2.02-6.21-5.3-7.89-1.6-18.81-1.6-37.76,0-56.84Z"/>
      <path class="uuid-50df02fc-8936-4719-9a45-da68a47cf67a" d="M679.96,119.61v131.96c-2.91,2.58-17.47,3.2-20.43,1.14-3.97-2.77-.31-13.2-2.92-13.34-18.69,30.88-57.48,14.05-64.58-16.59-2.49-10.75-2.7-33.02.51-43.4,6.77-21.87,31.06-40.01,53.44-27.23,2.89,1.65,6.13,8.97,9.59,10.1-.57-3.61.85-21.57.04-22.33-.74-.7-7.41.73-8.15.02-.81-.77.62-18.71,0-22.35,10.67.84,22.5-2.07,32.49,2.04Z"/>
      <path class="uuid-50df02fc-8936-4719-9a45-da68a47cf67a" d="M578.48,229.23c.37,3.42,7.05,1.21,8.04,2.11s-.52,18.57.09,22.26c-16.18-1.33-32.49,7.17-28.45-16.25-7.5,5.47-8.18,14.89-18.18,17.27-44.15,10.51-58.49-41.95-47.76-76.13,8.95-28.49,43.95-41.96,63.9-16.26-2.39-19.25,11.89-10.77,22.35-10.15,1.56,25.53,2.03,51.76,0,77.14Z"/>
      <path class="uuid-50df02fc-8936-4719-9a45-da68a47cf67a" d="M858.58,206.9c-.7,17.81,13.95,27.04,30.57,23.45,13.99-3.02,19.11-19.87,30.51-2.17,2.33,3.61-.62,8.46-3.1,11.34-6.88,7.98-22,15.47-32.51,16.19-47.97,3.28-65.87-60.19-38.78-91.56,6.81-7.88,22.21-15.6,32.59-15.69,32.05-.29,44.31,29.93,41.62,58.45h-60.89Z"/>
      <path class="uuid-5b2ebd92-3972-4b48-84d5-1dc4154248ab" d="M444.51,231.26c13.26-1.01,19.92-11.36,23.64-12.01,2.86-.51,12.97,10.12,12.97,13.03,0,7.12-16.24,13.52-19.8,19.26-53.07,23.44-88.19-43.35-57.05-83.87,4.77-6.2,17.56-16.85,24.99-17.62,38.49-3.96,50.11,19.82,50.9,54.87-4.18,5.84-52.72-1.83-62.04,4.01,4.98.39,5.66,2.42,2.03,6.09,2.84,10.09,6.69,14.8,18.27,16.24,1.95,1.53,3.96.92,6.09,0Z"/>
      <path class="uuid-5b2ebd92-3972-4b48-84d5-1dc4154248ab" d="M351.15,150.06l1.01,26.41c8.11-23.32,26.12-29.54,49.72-26.4,1.56,6.98-5.29,8.86-8.1,13.19-1.91,2.96-4.87,11.49-6.65,12.64-3.44,2.24-13.3,1.42-18.52,4.83-1.65,1.08-13.42,15.95-13.42,17.03v33.5c1.9.35,7.54-.58,8.14-.01.81.77-.62,18.7-.02,22.34h-40.59c.6-3.64-.83-21.57-.02-22.34.6-.57,6.24.36,8.14.01v-56.84c0-.66-10.07,2.19-11.9-3.33-1.14-3.44-1.12-21.03,2.76-21.03h29.43Z"/>
      <path class="uuid-180d0372-9b8d-4626-a865-69eb51fb4542" d="M99.46,255.63c-1.08-.89-3.48-3.08-4.06-4.06-3.06-32.77-2.62-66.64,0-99.47,1.43-2.57,2.44-2.58,4.06-4.06v107.59Z"/>
      <path class="uuid-17c1c6fa-6468-4640-905d-0c750731cb21" d="M95.4,251.57c-1.09-1.85-1.76-1.64-2.15-4.86-2.33-19.49-1.85-67.68-.02-87.72.36-3.96.43-3.75,2.17-6.89v99.47Z"/>
      <path class="uuid-9a2e38e6-8f76-4015-aa92-f1d62f335ee8" d="M113.67,261.72c12.5.36,25.13-.49,37.64,0,3.91.15,8.14-2.09,7.01,4.06-7.14-.64-42.19,1.32-44.27-.5-.94-.82-.16-3.38-.39-3.56Z"/>
      <path class="uuid-4bbacfc4-ac16-46ff-b445-aa76d72a3591" d="M578.48,229.23v-77.14c.29.02.42-1.65,1-1.98,1.62,21.69,1.34,45.49,1.06,67.99-.04,3.43,1.3,9.02-2.07,11.14Z"/>
      <path class="uuid-90d773af-0ec9-44e8-bbe2-f2ef8ccdbb4b" d="M418.13,208.93l60.88.02c.47,3.54-4.61,1.91-7.07,2.01-14.69.6-30.45-1.14-44.87-.14-4.1.28-4.98.34-6.91,4.2-.49-1.73-2.66-3.54-2.03-6.09Z"/>
      <path class="uuid-1f4202ec-25ba-40a6-b3d4-9ac530678683" d="M797.69,245.47c-.1-.05-2.07,3.43-2.04,1.01,1.28-18.88-2.62-39.58,2.04-57.85,1.57,18.21-1.16,38.4,0,56.84Z"/>
      <path class="uuid-c151b4b3-bd4e-4242-99f2-a1179de55cf8" d="M265.9,141.94c-6.34-1.45-47.18-1.04-54.8,0,13.24-3.59,29.7-2.21,43.67-2.07,3.43.04,9.03-1.3,11.13,2.07Z"/>
      <path class="uuid-c151b4b3-bd4e-4242-99f2-a1179de55cf8" d="M162.38,141.94c-7.59-1.04-48.51-1.45-54.8,0,2.11-3.36,7.7-2.03,11.13-2.07,13.97-.15,30.43-1.52,43.67,2.07Z"/>
      <rect class="uuid-4bbacfc4-ac16-46ff-b445-aa76d72a3591" x="322.73" y="255.63" width="38.57" height="2.03"/>
      <rect class="uuid-1f4202ec-25ba-40a6-b3d4-9ac530678683" x="694.17" y="255.63" width="28.42" height="2.03"/>
      <path class="uuid-a773afaa-de9f-4f60-93cd-741495f1f1f4" d="M229.36,261.72c1.78,7.1-8.26,3.22-14.21,4.06-1.92-6.53,8.28-3.91,14.21-4.06Z"/>
      <path class="uuid-1f4202ec-25ba-40a6-b3d4-9ac530678683" d="M586.59,255.65c.47,3.54-4.61,1.91-7.07,2.01-5.74.24-11.55-.14-17.26-.02-.47-3.54,4.61-1.91,7.07-2.01,5.74-.24,11.55.14,17.26.02Z"/>
      <path class="uuid-e168f155-a9a3-420e-960d-b6bc9228114c" d="M444.51,231.26c1.57,6.45-7.87,6.05-6.09,0,1.78.22,4.25.14,6.09,0Z"/>
      <path class="uuid-a6d7f54e-59ea-4903-a7ad-7859c1528435" d="M188.77,164.27c-.47,1.5.33,4.22-.02,6.08-3.34.63-2.7-5.18-4.04-8.11l4.06,2.03Z"/>
      <path class="uuid-50eb0467-9e94-4d1c-857c-793e8f87c4e2" d="M200.94,237.35c-1.02-1.05.07-12.18,3.04-12.18h46.68c4.03,0,4.03,12.18,0,12.18-6.88,0-47.99,1.78-49.73,0Z"/>
      <path class="uuid-4e0e6298-0f27-4cb6-aeca-aa89d87a6b6d" d="M200.94,204.87h49.73c3.82,0,3.82,10.15,0,10.15h-46.68c-2.66,0-3.71-7.5-3.04-10.15Z"/>
      <rect class="uuid-9d7e4fe7-213f-4b67-9631-1b8a2770b471" x="121.78" y="204.87" width="50.74" height="10.15"/>
      <path class="uuid-a59e5ac6-2e95-4f47-895b-7b65c683eacd" d="M172.53,229.23c.38,2.51-.21,5.52.01,8.13l-49.57.03c-2.08-.33-1.3-6-1.18-8.16.29-1.13.6-2.01.94-2.03,15.29-.63,33.17-.64,48.47-.02.47.02.91.91,1.33,2.05Z"/>
      <rect class="uuid-f8ba1e09-c3f2-4ef9-af51-c2cdada101f1" x="200.94" y="182.54" width="52.77" height="10.15"/>
      <path class="uuid-f8480d23-5fbf-4ae8-8d46-01026c810f11" d="M172.53,186.6c.1,2.02,0,4.08.01,6.1l-49.56.03c-2.12-.21-1.31-4.48-1.2-6.13.29-1.13.6-2.01.94-2.03,15.29-.63,33.17-.64,48.47-.02.47.02.91.91,1.33,2.05Z"/>
      <path class="uuid-c3341a00-b097-4ee3-bd0c-30adad3ca27b" d="M121.78,186.6c.09-1.34-.12-2.72-.01-4.06l49.54-.04c2.13-.24,1.14,2.62,1.21,4.1h-50.74Z"/>
      <rect class="uuid-760150e6-a3e3-4055-8ecb-51c19abedf15" x="121.78" y="219.08" width="50.74" height="4.06"/>
      <path class="uuid-31154971-3e11-4e37-8bd3-e65ebc379391" d="M121.78,229.23c.07-1.35-.11-2.71-.01-4.06l49.54-.04c2.23-.23.99,2.64,1.21,4.1h-50.74Z"/>
      <path class="uuid-332864e9-01bc-4647-bb7b-3ccda1041e66" d="M619.66,179.05c1.92-2.25,11.46-6.37,14.63-6.38,30.11-.11,29.01,63.86-3.54,58.22-19.25-3.34-21.82-39.25-11.1-51.83Z"/>
      <path class="uuid-338ba4a3-e950-4048-9883-b8b37cb0ab52" d="M537.88,231.26c-.61,3.1-7.01,3.21-8.12,0-8.76-6.85-13.84-3.44-16.06-19.46-2.74-19.8,3.36-44.3,28.34-36.46,14.05,4.41,14.95,36.2,8.47,47.24-3.83,6.52-8.17,5.78-12.63,8.68Z"/>
      <path class="uuid-24356a81-5a02-42eb-a323-592664fe6416" d="M537.88,231.26c-.49.32,1.95,3.52-2.96,4.17-7.53,1-4.7-3.81-5.16-4.17h8.12Z"/>
      <path class="uuid-4de6af90-0b64-434e-a44e-b701a05b9958" d="M897.15,190.66h-38.57c2.49-24.37,38.04-26.05,38.57,0Z"/>
      <path class="uuid-98847bc9-f9c2-4fbb-a7d1-c346ffe3f2fc" d="M456.69,190.66h-38.57c2.41-24.14,39.49-25.67,38.57,0Z"/>
      <rect class="uuid-4de6af90-0b64-434e-a44e-b701a05b9958" x="205" y="186.6" width="44.65" height="4.06"/>
    </g>
  </g>
</svg>